<svg id="Layer_1" data-name="Layer 1" xmlns="http://www.w3.org/2000/svg" viewBox="0 0 2172 2172"><defs><style>.cls-1{fill:#6e25b2;}.cls-2{fill:#fff;}</style></defs><path class="cls-1" d="M882.16,1213c-60.58-46.29-100.22-88.43-135-157.46h0C720.79,996.5,712.08,933.42,715,869.26l-2.37-.22c-33.76,29.34-66.44,60-99.42,90.19-14.92,13.67-29.66,28.69-45.54,41.17,14.62,57.6,32.06,108.78,61.86,160.45,72.63,114.23,136.2,168.24,253.6,233.37C882.88,1333.84,883.22,1273.41,882.16,1213Z"/><path class="cls-1" d="M589.45,696.46c-11.82,32.19-21.59,66.3-26.6,100.26,13.21-6.27,37.85-35.19,50.57-46.57L889.17,504V377.78C753.89,440.3,641.17,555.65,589.45,696.46Z"/><path class="cls-1" d="M712.63,869l2.37.22c.71-6.33,1.27-12.68,2-19,15.39-124.9,74.55-212.41,172.45-289.08.54-19-.14-38.13-.33-57.14L613.42,750.15c-12.72,11.38-37.36,40.3-50.57,46.57-6.66,51.64-8.18,100.26-3.17,152.12,1.66,17.18,3.44,34.88,8,51.56,15.87-12.48,30.62-27.5,45.54-41.17C646.19,929,678.86,898.38,712.63,869Z"/><path class="cls-2" d="M929.81,638.76c103.76-1.32,207.62-.36,311.38.21l-.34-314.61c-24.93,18.58-47.65,40.74-71.55,60.7L1010.82,517.35,959.3,560.87c-2.35,2-4.71,4-7.08,6.13,2.37-2.09,4.73-4.15,7.08-6.13l51.52-43.52L1169.3,385.06c23.9-20,46.62-42.12,71.55-60.7l0-180.32L930,144.25q2.21,220-.05,440.2c.66-.4,1.31-.81,2-1.23-.65.42-1.3.83-2,1.23C929.5,602.52,929.85,620.68,929.81,638.76Z"/><path class="cls-1" d="M1319.66,595.3c40.13-36.82,75.9-79.26,117.12-114.67-45.5-42.91-99.67-77.71-155.5-105.52l.12,190.33A345.41,345.41,0,0,1,1319.66,595.3Z"/><path class="cls-1" d="M1319.66,595.31c67,62.09,108.79,138.47,126.63,228.07,31-27.22,59.42-58.19,88.82-87.18,14.87-14.66,33.39-28.76,46-45.21-3.19-12.34-10.78-26.19-16.43-37.71-31.79-64.78-74.56-123.86-127.91-172.65C1395.56,516,1359.79,558.48,1319.66,595.31Z"/><path class="cls-1" d="M1581.12,691c-12.62,16.45-31.14,30.55-46,45.21-29.4,29-57.82,60-88.82,87.18q1.51,10.57,2.58,20.77t1.64,20.15c2.38,39.79-.73,77-8.77,118.54h0c-.62,2-1.24,4-1.86,6-13,41.4-26.45,77.36-49.69,112.07a301.54,301.54,0,0,1-18.71,25c-9.69,11.68-20.87,22.1-31,33.42-19.12,16.76-38.18,32.21-58.79,47.14l.68,184.86c58.2-26.19,113.4-63.4,160.59-106.27,33.61-30.54,62.26-65.36,87.14-103.26,54.68-83.3,83.34-171.77,88-271.3C1621,837.83,1608.14,758.58,1581.12,691Z"/><path class="cls-2" d="M1241,1396.28c-2.49-17.29-1.5-35.18-1.35-52.6v0c2.15-136.25,1.33-272.63,2-408.89-1.63-.37-4.32-1.37-6.36-1.39,2,0,4.73,1,6.36,1.39v-255c-22.4,0-44.84-.15-67.23.47l-1.33.4,1.32-.4-246.8-.89-.11,382,0,119.19c0,20.13-.94,40.67.07,60.76h0l-.13,94.15c0,19.33,1.43,39.85-1.11,59-5.63,42.48-36,85.44-65.9,114.66a217.47,217.47,0,0,1-45.07,34.32c12.29,22.69,23.83,46.49,37.23,68.51.74-4.06.64-6.82,3.5-10,5.6-6.27,13.65-9.26,20.9-13.11,6.43-3.41,12.5-7.34,19.19-10.26,33.86-14.77,81.8-27.29,110.33-49.71,20.45-16.08,38.42-36.49,56.94-54.76,39.46-38.92,78.68-78.19,118.78-116.46,18.71-17.85,37.29-37,57.62-53h0c-20.33,16-38.91,35.14-57.62,53-40.09,38.27-79.31,77.54-118.78,116.46-18.52,18.27-36.49,38.68-56.94,54.76-28.53,22.42-76.47,34.94-110.33,49.71-6.69,2.92-12.76,6.85-19.19,10.26-7.25,3.85-15.3,6.84-20.9,13.11-2.86,3.2-2.76,6-3.5,10,49.06,92,100.57,182.81,150.85,274.16l50.39,91.49c9.45,17.16,18.21,35.77,29.5,51.77-6.2-27.74-8.61-56.59-12.08-84.78-7.78-63.25-13.47-126.73-20.83-190l-15.72-130.4c-2.41-20.56-7.26-43.57-5.88-64.13,1-14.64,7.86-26.89,19.05-36.29,11.82-9.93,25.3-14.89,40.85-13.3,15.1,1.55,29.77,9.25,38.92,21.48,5.84,7.81,8.33,15.85,8.73,25.44,1,23.61-2.18,48.33-4.26,71.9-3.72,42.09-8.15,84.08-12.59,126.1-9.56,90.66-16.78,181.4-28.31,271.88,83.58-163,177.74-320.63,262.66-483a249.53,249.53,0,0,1-50-39.73C1276.05,1476,1246.81,1436.73,1241,1396.28ZM1085.73,947.52A78.48,78.48,0,1,1,1164.21,869,78.48,78.48,0,0,1,1085.73,947.52Zm76-223.92c1.59-2.21,3.47-4.34,5-6.61C1165.19,719.26,1163.31,721.39,1161.72,723.6Zm14.44,251.81,1.56-.2h0Z"/></svg>